# xmcd
#
# Track frame offsets:
#	150
#	15059
#	30071
#	44648
#	59807
#	75614
#	88875
#	105671
#	120044
#	132705
#	147320
#	162420
#
# Disc length: 2325 seconds
#
# Revision: 1
# Processed by: cddbd v1.5.2PL0 Copyright (c) Steve Scherf et al.
# Submitted via: EZCDAudioConverter 9.0.5.1
#
DISCID=9709130c
DTITLE=OS SANTANNAS - VICIADO EM VANERÃO [CD 74034920) ACIT
DYEAR=1999
DGENRE=FORRÓ CAPIXABA
TTITLE0=VICIADO EM VANERÃO (VANERÃO) (BY GILMAR SINISTRO)
TTITLE1=SOU GUAPO (VANERÃO) (BY GILMAR SINISTRO)
TTITLE2=XOTEANDO (XOTE) (BY GILMAR SINISTRO)
TTITLE3=MEU REMEDIO É CAMBICHO (VANERÃO) (BY GILMAR SINISTRO)
TTITLE4=LIDA CAMPEIRA (CHAMAMÉ) (BY GILMAR SINISTRO)
TTITLE5=BARALHO (VANERÃO) (BY GILMAR SINISTRO)
TTITLE6=MEU GRANDE AMOR (VANERA) (BY GILMAR SINISTRO)
TTITLE7=BONECA DO TCHÊ (COUNTRY) (BY GILMAR SINISTRO)
TTITLE8=SINA DE COWBOW (COWNTRY) (BY GILMAR SINISTRO)
TTITLE9=A VOZ DO CORAÇÃO (VANERÃO) (BY GILMAR SINISTRO)
TTITLE10=NAMORO DE BAILE (VANERÃO) (BY GILMAR SINISTRO)
TTITLE11=GATEANDO MOÇOILA (BUGIO) (BY GILMAR SINISTRO)
EXTD=
EXTT0=
EXTT1=
EXTT2=
EXTT3=
EXTT4=
EXTT5=
EXTT6=
EXTT7=
EXTT8=
EXTT9=
EXTT10=
EXTT11=
PLAYORDER=
